<svg width="16" height="19" viewBox="0 0 16 19" fill="none" xmlns="http://www.w3.org/2000/svg">
<path d="M10.4593 1.20607C11.8001 0.150885 13.4734 -0.307184 15.3802 0.219058C15.8325 0.343935 16.0955 0.80314 15.9677 1.24483C15.8399 1.68654 15.3696 1.94349 14.9172 1.81869C13.5874 1.45168 12.4775 1.75286 11.5276 2.50031C10.543 3.27514 9.71505 4.54923 9.11159 6.11111C9.02156 6.34414 8.93718 6.58147 8.85869 6.82215C9.80052 7.04815 10.8087 7.43449 11.879 8.02649C13.8007 9.08946 14.7528 10.5469 14.9301 12.0951C15.1026 13.6019 14.5261 15.0596 13.6737 16.1547C12.8322 17.2359 11.6158 18.0965 10.3487 18.2586C9.69551 18.3422 9.01867 18.2383 8.41439 17.8625C7.81442 17.4895 7.36051 16.8951 7.05862 16.1247C6.22993 14.0099 6.16096 11.0266 6.73423 8.22718C5.62093 8.22957 4.69651 8.51268 3.95766 8.87633C3.16367 9.26714 2.55548 9.76643 2.14534 10.1702C1.94119 10.3711 1.78884 10.5456 1.69002 10.6665C1.64073 10.7268 1.60503 10.7735 1.583 10.8031C1.57203 10.8178 1.56444 10.8282 1.56035 10.8339C1.5583 10.8368 1.55681 10.839 1.55681 10.839L1.55764 10.8378L1.55785 10.837C1.29606 11.2178 0.767826 11.3198 0.377483 11.0644C-0.0130599 10.809 -0.117509 10.2926 0.144111 9.91123L0.803289 10.3424C0.144105 9.91125 0.144734 9.91042 0.144734 9.91042L0.145358 9.90941L0.14702 9.90697C0.148206 9.90526 0.149743 9.90323 0.151384 9.90088C0.154705 9.89614 0.158884 9.89007 0.164061 9.88282C0.174484 9.86824 0.188728 9.84864 0.206662 9.82459C0.242556 9.77645 0.293625 9.7101 0.359611 9.62937C0.49142 9.46813 0.684043 9.24801 0.936704 8.9993C1.44019 8.50369 2.19356 7.88303 3.19125 7.39195C4.2675 6.86222 5.59737 6.49983 7.15546 6.57479C7.26565 6.21678 7.38679 5.86571 7.51872 5.52426C8.18265 3.80587 9.15318 2.2339 10.4593 1.20607ZM8.42935 8.43051C7.8789 11.0193 7.94708 13.7403 8.64859 15.5306C8.85234 16.0505 9.10552 16.3217 9.32876 16.4605C9.54767 16.5967 9.81024 16.6511 10.1276 16.6105C10.8016 16.5242 11.6508 16.0065 12.3183 15.1489C12.9749 14.3052 13.3507 13.2636 13.2381 12.2799C13.1302 11.3377 12.5596 10.3134 11.0401 9.47292C10.0967 8.95113 9.22673 8.61931 8.42935 8.43051Z" fill="white"/>
</svg>
